<?xml version="1.0" encoding="UTF-8" standalone="no"?>
<!DOCTYPE svg PUBLIC "-//W3C//DTD SVG 1.1//EN"
 "http://www.w3.org/Graphics/SVG/1.1/DTD/svg11.dtd">
<!-- Generated by graphviz version 2.38.0 (20140413.2041)
 -->
<!-- Title: Tree Pages: 1 -->
<svg width="456pt" height="269pt"
 viewBox="0.00 0.00 456.00 269.00" xmlns="http://www.w3.org/2000/svg" xmlns:xlink="http://www.w3.org/1999/xlink">
<g id="graph0" class="graph" transform="scale(1 1) rotate(0) translate(4 265)">
<title>Tree</title>
<polygon fill="white" stroke="none" points="-4,4 -4,-265 452,-265 452,4 -4,4"/>
<!-- 0 -->
<g id="node1" class="node"><title>0</title>
<path fill="#f9e4d5" stroke="black" d="M270,-261C270,-261 188,-261 188,-261 182,-261 176,-255 176,-249 176,-249 176,-205 176,-205 176,-199 182,-193 188,-193 188,-193 270,-193 270,-193 276,-193 282,-199 282,-205 282,-205 282,-249 282,-249 282,-255 276,-261 270,-261"/>
<text text-anchor="middle" x="229" y="-245.8" font-family="Helvetica,sans-Serif" font-size="14.00">x1 &lt;= 0.836</text>
<text text-anchor="middle" x="229" y="-230.8" font-family="Helvetica,sans-Serif" font-size="14.00">mse = 0.097</text>
<text text-anchor="middle" x="229" y="-215.8" font-family="Helvetica,sans-Serif" font-size="14.00">samples = 200</text>
<text text-anchor="middle" x="229" y="-200.8" font-family="Helvetica,sans-Serif" font-size="14.00">value = 0.325</text>
</g>
<!-- 1 -->
<g id="node2" class="node"><title>1</title>
<path fill="#fbeee4" stroke="black" d="M210,-157C210,-157 128,-157 128,-157 122,-157 116,-151 116,-145 116,-145 116,-101 116,-101 116,-95 122,-89 128,-89 128,-89 210,-89 210,-89 216,-89 222,-95 222,-101 222,-101 222,-145 222,-145 222,-151 216,-157 210,-157"/>
<text text-anchor="middle" x="169" y="-141.8" font-family="Helvetica,sans-Serif" font-size="14.00">x1 &lt;= 0.183</text>
<text text-anchor="middle" x="169" y="-126.8" font-family="Helvetica,sans-Serif" font-size="14.00">mse = 0.073</text>
<text text-anchor="middle" x="169" y="-111.8" font-family="Helvetica,sans-Serif" font-size="14.00">samples = 174</text>
<text text-anchor="middle" x="169" y="-96.8" font-family="Helvetica,sans-Serif" font-size="14.00">value = 0.26</text>
</g>
<!-- 0&#45;&gt;1 -->
<g id="edge1" class="edge"><title>0&#45;&gt;1</title>
<path fill="none" stroke="black" d="M209.52,-192.884C204.49,-184.332 199.008,-175.013 193.748,-166.072"/>
<polygon fill="black" stroke="black" points="196.675,-164.144 188.588,-157.299 190.641,-167.693 196.675,-164.144"/>
<text text-anchor="middle" x="182.314" y="-177.799" font-family="Helvetica,sans-Serif" font-size="14.00">True</text>
</g>
<!-- 4 -->
<g id="node5" class="node"><title>4</title>
<path fill="#eca571" stroke="black" d="M326,-157C326,-157 252,-157 252,-157 246,-157 240,-151 240,-145 240,-145 240,-101 240,-101 240,-95 246,-89 252,-89 252,-89 326,-89 326,-89 332,-89 338,-95 338,-101 338,-101 338,-145 338,-145 338,-151 332,-157 326,-157"/>
<text text-anchor="middle" x="289" y="-141.8" font-family="Helvetica,sans-Serif" font-size="14.00">x1 &lt;= 0.955</text>
<text text-anchor="middle" x="289" y="-126.8" font-family="Helvetica,sans-Serif" font-size="14.00">mse = 0.035</text>
<text text-anchor="middle" x="289" y="-111.8" font-family="Helvetica,sans-Serif" font-size="14.00">samples = 26</text>
<text text-anchor="middle" x="289" y="-96.8" font-family="Helvetica,sans-Serif" font-size="14.00">value = 0.762</text>
</g>
<!-- 0&#45;&gt;4 -->
<g id="edge4" class="edge"><title>0&#45;&gt;4</title>
<path fill="none" stroke="black" d="M248.48,-192.884C253.51,-184.332 258.992,-175.013 264.252,-166.072"/>
<polygon fill="black" stroke="black" points="267.359,-167.693 269.412,-157.299 261.325,-164.144 267.359,-167.693"/>
<text text-anchor="middle" x="275.686" y="-177.799" font-family="Helvetica,sans-Serif" font-size="14.00">False</text>
</g>
<!-- 2 -->
<g id="node3" class="node"><title>2</title>
<path fill="#f0b58b" stroke="black" d="M86,-53C86,-53 12,-53 12,-53 6,-53 7.10543e-15,-47 7.10543e-15,-41 7.10543e-15,-41 7.10543e-15,-12 7.10543e-15,-12 7.10543e-15,-6 6,-0 12,-0 12,-0 86,-0 86,-0 92,-0 98,-6 98,-12 98,-12 98,-41 98,-41 98,-47 92,-53 86,-53"/>
<text text-anchor="middle" x="49" y="-37.8" font-family="Helvetica,sans-Serif" font-size="14.00">mse = 0.038</text>
<text text-anchor="middle" x="49" y="-22.8" font-family="Helvetica,sans-Serif" font-size="14.00">samples = 41</text>
<text text-anchor="middle" x="49" y="-7.8" font-family="Helvetica,sans-Serif" font-size="14.00">value = 0.648</text>
</g>
<!-- 1&#45;&gt;2 -->
<g id="edge2" class="edge"><title>1&#45;&gt;2</title>
<path fill="none" stroke="black" d="M127.03,-88.9485C114.949,-79.4346 101.792,-69.074 89.7842,-59.6175"/>
<polygon fill="black" stroke="black" points="91.7033,-56.6739 81.6815,-53.2367 87.3725,-62.1734 91.7033,-56.6739"/>
</g>
<!-- 3 -->
<g id="node4" class="node"><title>3</title>
<path fill="#ffffff" stroke="black" d="M210,-53C210,-53 128,-53 128,-53 122,-53 116,-47 116,-41 116,-41 116,-12 116,-12 116,-6 122,-0 128,-0 128,-0 210,-0 210,-0 216,-0 222,-6 222,-12 222,-12 222,-41 222,-41 222,-47 216,-53 210,-53"/>
<text text-anchor="middle" x="169" y="-37.8" font-family="Helvetica,sans-Serif" font-size="14.00">mse = 0.023</text>
<text text-anchor="middle" x="169" y="-22.8" font-family="Helvetica,sans-Serif" font-size="14.00">samples = 133</text>
<text text-anchor="middle" x="169" y="-7.8" font-family="Helvetica,sans-Serif" font-size="14.00">value = 0.14</text>
</g>
<!-- 1&#45;&gt;3 -->
<g id="edge3" class="edge"><title>1&#45;&gt;3</title>
<path fill="none" stroke="black" d="M169,-88.9485C169,-80.7153 169,-71.848 169,-63.4814"/>
<polygon fill="black" stroke="black" points="172.5,-63.2367 169,-53.2367 165.5,-63.2367 172.5,-63.2367"/>
</g>
<!-- 5 -->
<g id="node6" class="node"><title>5</title>
<path fill="#efb286" stroke="black" d="M326,-53C326,-53 252,-53 252,-53 246,-53 240,-47 240,-41 240,-41 240,-12 240,-12 240,-6 246,-0 252,-0 252,-0 326,-0 326,-0 332,-0 338,-6 338,-12 338,-12 338,-41 338,-41 338,-47 332,-53 326,-53"/>
<text text-anchor="middle" x="289" y="-37.8" font-family="Helvetica,sans-Serif" font-size="14.00">mse = 0.015</text>
<text text-anchor="middle" x="289" y="-22.8" font-family="Helvetica,sans-Serif" font-size="14.00">samples = 19</text>
<text text-anchor="middle" x="289" y="-7.8" font-family="Helvetica,sans-Serif" font-size="14.00">value = 0.671</text>
</g>
<!-- 4&#45;&gt;5 -->
<g id="edge5" class="edge"><title>4&#45;&gt;5</title>
<path fill="none" stroke="black" d="M289,-88.9485C289,-80.7153 289,-71.848 289,-63.4814"/>
<polygon fill="black" stroke="black" points="292.5,-63.2367 289,-53.2367 285.5,-63.2367 292.5,-63.2367"/>
</g>
<!-- 6 -->
<g id="node7" class="node"><title>6</title>
<path fill="#e58139" stroke="black" d="M436,-53C436,-53 368,-53 368,-53 362,-53 356,-47 356,-41 356,-41 356,-12 356,-12 356,-6 362,-0 368,-0 368,-0 436,-0 436,-0 442,-0 448,-6 448,-12 448,-12 448,-41 448,-41 448,-47 442,-53 436,-53"/>
<text text-anchor="middle" x="402" y="-37.8" font-family="Helvetica,sans-Serif" font-size="14.00">mse = 0.004</text>
<text text-anchor="middle" x="402" y="-22.8" font-family="Helvetica,sans-Serif" font-size="14.00">samples = 7</text>
<text text-anchor="middle" x="402" y="-7.8" font-family="Helvetica,sans-Serif" font-size="14.00">value = 1.01</text>
</g>
<!-- 4&#45;&gt;6 -->
<g id="edge6" class="edge"><title>4&#45;&gt;6</title>
<path fill="none" stroke="black" d="M328.522,-88.9485C339.789,-79.526 352.049,-69.2731 363.268,-59.8906"/>
<polygon fill="black" stroke="black" points="365.799,-62.3368 371.225,-53.2367 361.308,-56.967 365.799,-62.3368"/>
</g>
</g>
</svg>
