<?xml version="1.0" encoding="UTF-8" standalone="no"?>
<!DOCTYPE svg PUBLIC "-//W3C//DTD SVG 1.1//EN"
 "http://www.w3.org/Graphics/SVG/1.1/DTD/svg11.dtd">
<!-- Generated by graphviz version 2.38.0 (20140413.2041)
 -->
<!-- Title: Tree Pages: 1 -->
<svg width="335pt" height="314pt"
 viewBox="0.00 0.00 335.00 314.00" xmlns="http://www.w3.org/2000/svg" xmlns:xlink="http://www.w3.org/1999/xlink">
<g id="graph0" class="graph" transform="scale(1 1) rotate(0) translate(4 310)">
<title>Tree</title>
<polygon fill="white" stroke="none" points="-4,4 -4,-310 331,-310 331,4 -4,4"/>
<!-- 0 -->
<g id="node1" class="node"><title>0</title>
<path fill="#ffffff" stroke="black" d="M183.5,-306C183.5,-306 75.5,-306 75.5,-306 69.5,-306 63.5,-300 63.5,-294 63.5,-294 63.5,-235 63.5,-235 63.5,-229 69.5,-223 75.5,-223 75.5,-223 183.5,-223 183.5,-223 189.5,-223 195.5,-229 195.5,-235 195.5,-235 195.5,-294 195.5,-294 195.5,-300 189.5,-306 183.5,-306"/>
<text text-anchor="middle" x="129.5" y="-290.8" font-family="Helvetica,sans-Serif" font-size="14.00">petal width &lt;= 0.8</text>
<text text-anchor="middle" x="129.5" y="-275.8" font-family="Helvetica,sans-Serif" font-size="14.00">gini = 0.667</text>
<text text-anchor="middle" x="129.5" y="-260.8" font-family="Helvetica,sans-Serif" font-size="14.00">samples = 150</text>
<text text-anchor="middle" x="129.5" y="-245.8" font-family="Helvetica,sans-Serif" font-size="14.00">value = [50, 50, 50]</text>
<text text-anchor="middle" x="129.5" y="-230.8" font-family="Helvetica,sans-Serif" font-size="14.00">class = setosa</text>
</g>
<!-- 1 -->
<g id="node2" class="node"><title>1</title>
<path fill="#e58139" stroke="black" d="M105,-179.5C105,-179.5 12,-179.5 12,-179.5 6,-179.5 -7.10543e-15,-173.5 -7.10543e-15,-167.5 -7.10543e-15,-167.5 -7.10543e-15,-123.5 -7.10543e-15,-123.5 -7.10543e-15,-117.5 6,-111.5 12,-111.5 12,-111.5 105,-111.5 105,-111.5 111,-111.5 117,-117.5 117,-123.5 117,-123.5 117,-167.5 117,-167.5 117,-173.5 111,-179.5 105,-179.5"/>
<text text-anchor="middle" x="58.5" y="-164.3" font-family="Helvetica,sans-Serif" font-size="14.00">gini = 0.0</text>
<text text-anchor="middle" x="58.5" y="-149.3" font-family="Helvetica,sans-Serif" font-size="14.00">samples = 50</text>
<text text-anchor="middle" x="58.5" y="-134.3" font-family="Helvetica,sans-Serif" font-size="14.00">value = [50, 0, 0]</text>
<text text-anchor="middle" x="58.5" y="-119.3" font-family="Helvetica,sans-Serif" font-size="14.00">class = setosa</text>
</g>
<!-- 0&#45;&gt;1 -->
<g id="edge1" class="edge"><title>0&#45;&gt;1</title>
<path fill="none" stroke="black" d="M104.867,-222.907C98.1038,-211.763 90.7583,-199.658 83.9503,-188.439"/>
<polygon fill="black" stroke="black" points="86.807,-186.4 78.6269,-179.667 80.8227,-190.032 86.807,-186.4"/>
<text text-anchor="middle" x="72.6852" y="-200.251" font-family="Helvetica,sans-Serif" font-size="14.00">True</text>
</g>
<!-- 2 -->
<g id="node3" class="node"><title>2</title>
<path fill="#ffffff" stroke="black" d="M254,-187C254,-187 147,-187 147,-187 141,-187 135,-181 135,-175 135,-175 135,-116 135,-116 135,-110 141,-104 147,-104 147,-104 254,-104 254,-104 260,-104 266,-110 266,-116 266,-116 266,-175 266,-175 266,-181 260,-187 254,-187"/>
<text text-anchor="middle" x="200.5" y="-171.8" font-family="Helvetica,sans-Serif" font-size="14.00">petal width &lt;= 1.75</text>
<text text-anchor="middle" x="200.5" y="-156.8" font-family="Helvetica,sans-Serif" font-size="14.00">gini = 0.5</text>
<text text-anchor="middle" x="200.5" y="-141.8" font-family="Helvetica,sans-Serif" font-size="14.00">samples = 100</text>
<text text-anchor="middle" x="200.5" y="-126.8" font-family="Helvetica,sans-Serif" font-size="14.00">value = [0, 50, 50]</text>
<text text-anchor="middle" x="200.5" y="-111.8" font-family="Helvetica,sans-Serif" font-size="14.00">class = versicolor</text>
</g>
<!-- 0&#45;&gt;2 -->
<g id="edge2" class="edge"><title>0&#45;&gt;2</title>
<path fill="none" stroke="black" d="M154.133,-222.907C159.475,-214.105 165.18,-204.703 170.697,-195.612"/>
<polygon fill="black" stroke="black" points="173.715,-197.386 175.91,-187.021 167.73,-193.754 173.715,-197.386"/>
<text text-anchor="middle" x="181.852" y="-207.604" font-family="Helvetica,sans-Serif" font-size="14.00">False</text>
</g>
<!-- 3 -->
<g id="node4" class="node"><title>3</title>
<path fill="#4de88e" stroke="black" d="M180,-68C180,-68 83,-68 83,-68 77,-68 71,-62 71,-56 71,-56 71,-12 71,-12 71,-6 77,-0 83,-0 83,-0 180,-0 180,-0 186,-0 192,-6 192,-12 192,-12 192,-56 192,-56 192,-62 186,-68 180,-68"/>
<text text-anchor="middle" x="131.5" y="-52.8" font-family="Helvetica,sans-Serif" font-size="14.00">gini = 0.168</text>
<text text-anchor="middle" x="131.5" y="-37.8" font-family="Helvetica,sans-Serif" font-size="14.00">samples = 54</text>
<text text-anchor="middle" x="131.5" y="-22.8" font-family="Helvetica,sans-Serif" font-size="14.00">value = [0, 49, 5]</text>
<text text-anchor="middle" x="131.5" y="-7.8" font-family="Helvetica,sans-Serif" font-size="14.00">class = versicolor</text>
</g>
<!-- 2&#45;&gt;3 -->
<g id="edge3" class="edge"><title>2&#45;&gt;3</title>
<path fill="none" stroke="black" d="M174.807,-103.726C169.289,-94.9703 163.45,-85.7032 157.906,-76.9051"/>
<polygon fill="black" stroke="black" points="160.776,-74.8941 152.483,-68.2996 154.853,-78.6259 160.776,-74.8941"/>
</g>
<!-- 4 -->
<g id="node5" class="node"><title>4</title>
<path fill="#843de6" stroke="black" d="M315,-68C315,-68 222,-68 222,-68 216,-68 210,-62 210,-56 210,-56 210,-12 210,-12 210,-6 216,-0 222,-0 222,-0 315,-0 315,-0 321,-0 327,-6 327,-12 327,-12 327,-56 327,-56 327,-62 321,-68 315,-68"/>
<text text-anchor="middle" x="268.5" y="-52.8" font-family="Helvetica,sans-Serif" font-size="14.00">gini = 0.043</text>
<text text-anchor="middle" x="268.5" y="-37.8" font-family="Helvetica,sans-Serif" font-size="14.00">samples = 46</text>
<text text-anchor="middle" x="268.5" y="-22.8" font-family="Helvetica,sans-Serif" font-size="14.00">value = [0, 1, 45]</text>
<text text-anchor="middle" x="268.5" y="-7.8" font-family="Helvetica,sans-Serif" font-size="14.00">class = virginica</text>
</g>
<!-- 2&#45;&gt;4 -->
<g id="edge4" class="edge"><title>2&#45;&gt;4</title>
<path fill="none" stroke="black" d="M225.821,-103.726C231.258,-94.9703 237.013,-85.7032 242.477,-76.9051"/>
<polygon fill="black" stroke="black" points="245.519,-78.6413 247.821,-68.2996 239.572,-74.9484 245.519,-78.6413"/>
</g>
</g>
</svg>
